<svg width="44" height="44" viewBox="0 0 44 44" fill="none" xmlns="http://www.w3.org/2000/svg">
    <rect x="0.5" y="0.5" width="43" height="43" rx="11.5" stroke="#8AB7F4"/>
    <path d="M22.7218 16.9799C24.4989 16.9799 25.6977 17.7475 26.3812 18.389L29.0521 15.781C27.4117 14.2562 25.277 13.3203 22.7218 13.3203C19.0203 13.3203 15.8236 15.4445 14.2673 18.5362L17.3273 20.9128C18.095 18.6309 20.2191 16.9799 22.7218 16.9799Z" fill="#0063E6"/>
    <path d="M31.8071 22.995C31.8071 22.2168 31.744 21.649 31.6073 21.0601H22.7218V24.5724H27.9374C27.8323 25.4452 27.2644 26.7597 26.0026 27.6431L28.989 29.9566C30.7766 28.3056 31.8071 25.8764 31.8071 22.995Z" fill="#0063E6"/>
    <path d="M17.3378 24.6565C17.138 24.0676 17.0224 23.4367 17.0224 22.7847C17.0224 22.1327 17.138 21.5017 17.3273 20.9128L14.2673 18.5362C13.6259 19.8192 13.2578 21.2598 13.2578 22.7847C13.2578 24.3095 13.6259 25.7502 14.2673 27.0331L17.3378 24.6565Z" fill="#0063E6"/>
    <path d="M22.7217 32.249C25.277 32.249 27.4222 31.4078 28.989 29.9566L26.0026 27.6431C25.2034 28.2004 24.1308 28.5895 22.7217 28.5895C20.219 28.5895 18.0949 26.9385 17.3378 24.6565L14.2778 27.0331C15.8341 30.1248 19.0203 32.249 22.7217 32.249Z" fill="#0063E6"/>
    <path d="M22.464 16.6596C24.2411 16.6596 25.4398 17.4272 26.1233 18.0687L28.7943 15.4607C27.1539 13.9359 25.0192 13 22.464 13C18.7625 13 15.5658 15.1242 14.0095 18.2159L17.0695 20.5925C17.8371 18.3106 19.9613 16.6596 22.464 16.6596Z" fill="#0063E6"/>
    <path d="M31.5493 22.6747C31.5493 21.8965 31.4862 21.3286 31.3495 20.7397H22.4639V24.2521H27.6796C27.5745 25.1249 27.0066 26.4394 25.7448 27.3227L28.7312 29.6363C30.5188 27.9853 31.5493 25.5561 31.5493 22.6747Z" fill="#0063E6"/>
    <path d="M17.08 24.3362C16.8802 23.7473 16.7645 23.1163 16.7645 22.4644C16.7645 21.8124 16.8802 21.1814 17.0695 20.5925L14.0095 18.2159C13.3681 19.4989 13 20.9395 13 22.4644C13 23.9892 13.368 25.4299 14.0095 26.7128L17.08 24.3362Z" fill="#0063E6"/>
    <path d="M22.4639 31.9287C25.0192 31.9287 27.1644 31.0875 28.7312 29.6363L25.7448 27.3227C24.9456 27.8801 23.873 28.2692 22.4639 28.2692C19.9612 28.2692 17.8371 26.6182 17.08 24.3362L14.02 26.7128C15.5763 29.8045 18.7625 31.9287 22.4639 31.9287Z" fill="#0063E6"/>
</svg>
